{
  "accessors": [
    {
      "bufferView": 2,
      "componentType": 5126,
      "count": 65532,
      "max": [
        0.015001090243458748,
        -8.584014722146094e-05,
        0.042096517980098724
      ],
      "min": [
        -0.017289958894252777,
        -0.015342961065471172,
        -0.023952340707182884
      ],
      "type": "VEC3"
    },
    {
      "bufferView": 2,
      "byteOffset": 786384,
      "componentType": 5126,
      "count": 65532,
      "max": [
        0.9999756813049316,
        0.9999914765357971,
        0.9991071224212646
      ],
      "min": [
        -0.9999229311943054,
        -1.0,
        -0.9998870491981506
      ],
      "type": "VEC3"
    },
    {
      "bufferView": 3,
      "componentType": 5126,
      "count": 65532,
      "max": [
        1.0,
        0.9999996423721313,
        0.9968478679656982,
        1.0
      ],
      "min": [
        -1.0,
        -0.9999995827674866,
        -0.9999825954437256,
        -1.0
      ],
      "type": "VEC4"
    },
    {
      "bufferView": 1,
      "componentType": 5126,
      "count": 65532,
      "max": [
        0.9997278451919556,
        0.9997557401657104
      ],
      "min": [
        0.000244140625,
        0.00025482906494289637
      ],
      "type": "VEC2"
    },
    {
      "bufferView": 0,
      "componentType": 5125,
      "count": 329664,
      "type": "SCALAR"
    },
    {
      "bufferView": 2,
      "byteOffset": 1572768,
      "componentType": 5126,
      "count": 49789,
      "max": [
        0.01498851552605629,
        -7.758064020890743e-05,
        0.015832168981432915
      ],
      "min": [
        -0.017485016956925392,
        -0.015827486291527748,
        -0.02393948845565319
      ],
      "type": "VEC3"
    },
    {
      "bufferView": 2,
      "byteOffset": 2170236,
      "componentType": 5126,
      "count": 49789,
      "max": [
        0.9999388456344604,
        0.9999991655349731,
        0.9659924507141113
      ],
      "min": [
        -0.9999822974205017,
        -1.0,
        -0.9998115301132202
      ],
      "type": "VEC3"
    },
    {
      "bufferView": 3,
      "byteOffset": 1048512,
      "componentType": 5126,
      "count": 49789,
      "max": [
        1.0,
        0.9999950528144836,
        0.9993142485618591,
        1.0
      ],
      "min": [
        -1.0,
        -0.9999992847442627,
        -0.999193012714386,
        -1.0
      ],
      "type": "VEC4"
    },
    {
      "bufferView": 1,
      "byteOffset": 524256,
      "componentType": 5126,
      "count": 49789,
      "max": [
        0.999620258808136,
        0.9392724633216858
      ],
      "min": [
        0.000244140625,
        0.0002444578567519784
      ],
      "type": "VEC2"
    },
    {
      "bufferView": 0,
      "byteOffset": 1318656,
      "componentType": 5125,
      "count": 226656,
      "type": "SCALAR"
    }
  ],
  "asset": {
    "extras": {
      "author": "Global Digital Heritage (https://sketchfab.com/GlobalDigitalHeritage)",
      "license": "CC-BY-NC-4.0 (http://creativecommons.org/licenses/by-nc/4.0/)",
      "source": "https://sketchfab.com/3d-models/nmbh-palaeolithic-tool-45651b91cda14dc2aeec5ffb89e33cb5",
      "title": "NMB&H, Palaeolithic tool"
    },
    "generator": "Sketchfab-13.99.0",
    "version": "2.0"
  },
  "bufferViews": [
    {
      "buffer": 0,
      "byteLength": 2225280,
      "name": "floatBufferViews",
      "target": 34963
    },
    {
      "buffer": 0,
      "byteLength": 922568,
      "byteOffset": 2225280,
      "byteStride": 8,
      "name": "floatBufferViews",
      "target": 34962
    },
    {
      "buffer": 0,
      "byteLength": 2767704,
      "byteOffset": 3147848,
      "byteStride": 12,
      "name": "floatBufferViews",
      "target": 34962
    },
    {
      "buffer": 0,
      "byteLength": 1845136,
      "byteOffset": 5915552,
      "byteStride": 16,
      "name": "floatBufferViews",
      "target": 34962
    }
  ],
  "buffers": [
    {
      "byteLength": 7760688,
      "uri": "scene.bin"
    }
  ],
  "images": [
    {
      "uri": "textures/32590_LP_u1_v1_baseColor.jpeg"
    },
    {
      "uri": "textures/32590_LP_u1_v1_normal.jpeg"
    }
  ],
  "materials": [
    {
      "doubleSided": true,
      "name": "32590_LP_u1_v1",
      "normalTexture": {
        "index": 1
      },
      "pbrMetallicRoughness": {
        "baseColorTexture": {
          "index": 0
        },
        "metallicFactor": 0.662185119558665,
        "roughnessFactor": 0.5464930067162316
      }
    }
  ],
  "meshes": [
    {
      "name": "Object_0",
      "primitives": [
        {
          "attributes": {
            "NORMAL": 1,
            "POSITION": 0,
            "TANGENT": 2,
            "TEXCOORD_0": 3
          },
          "indices": 4,
          "material": 0,
          "mode": 4
        }
      ]
    },
    {
      "name": "Object_1",
      "primitives": [
        {
          "attributes": {
            "NORMAL": 6,
            "POSITION": 5,
            "TANGENT": 7,
            "TEXCOORD_0": 8
          },
          "indices": 9,
          "material": 0,
          "mode": 4
        }
      ]
    }
  ],
  "nodes": [
    {
      "children": [
        1
      ],
      "matrix": [
        0.9930658340454102,
        -2.610350898954208e-17,
        0.1175597533583641,
        0.0,
        0.1175597533583641,
        2.205049107851598e-16,
        -0.9930658340454102,
        0.0,
        0.0,
        1.0,
        2.220446049250313e-16,
        0.0,
        0.0,
        0.0,
        0.0,
        1.0
      ],
      "name": "Sketchfab_model"
    },
    {
      "children": [
        2,
        3
      ],
      "name": "32590_LP.obj.cleaner.materialmerger.gles"
    },
    {
      "mesh": 0,
      "name": "Object_2"
    },
    {
      "mesh": 1,
      "name": "Object_3"
    }
  ],
  "samplers": [
    {
      "magFilter": 9729,
      "minFilter": 9987,
      "wrapS": 10497,
      "wrapT": 10497
    }
  ],
  "scene": 0,
  "scenes": [
    {
      "name": "Sketchfab_Scene",
      "nodes": [
        0
      ]
    }
  ],
  "textures": [
    {
      "sampler": 0,
      "source": 0
    },
    {
      "sampler": 0,
      "source": 1
    }
  ]
}
